<?xml version="1.0" standalone="no"?><svg xmlns="http://www.w3.org/2000/svg" viewBox="0 0 1440 320"><path fill="#0076c4" fill-opacity="1" d="M0,160L21.8,160C43.6,160,87,160,131,176C174.5,192,218,224,262,224C305.5,224,349,192,393,165.3C436.4,139,480,117,524,128C567.3,139,611,181,655,186.7C698.2,192,742,160,785,160C829.1,160,873,192,916,197.3C960,203,1004,181,1047,144C1090.9,107,1135,53,1178,53.3C1221.8,53,1265,107,1309,133.3C1352.7,160,1396,160,1418,160L1440,160L1440,320L1418.2,320C1396.4,320,1353,320,1309,320C1265.5,320,1222,320,1178,320C1134.5,320,1091,320,1047,320C1003.6,320,960,320,916,320C872.7,320,829,320,785,320C741.8,320,698,320,655,320C610.9,320,567,320,524,320C480,320,436,320,393,320C349.1,320,305,320,262,320C218.2,320,175,320,131,320C87.3,320,44,320,22,320L0,320Z"></path></svg>